<?xml version="1.0" encoding="utf-8"?>
<!-- Generator: Adobe Illustrator 16.0.0, SVG Export Plug-In . SVG Version: 6.00 Build 0)  -->
<!DOCTYPE svg PUBLIC "-//W3C//DTD SVG 1.1//EN" "http://www.w3.org/Graphics/SVG/1.1/DTD/svg11.dtd">
<svg version="1.1" id="Layer_1" xmlns="http://www.w3.org/2000/svg" xmlns:xlink="http://www.w3.org/1999/xlink" x="0px" y="0px"
	 width="83px" height="109px" viewBox="0 0 83 109" enable-background="new 0 0 83 109" xml:space="preserve">
<path fill-rule="evenodd" clip-rule="evenodd" fill="none" d="M96,92"/>
<path fill-rule="evenodd" clip-rule="evenodd" fill="#008454" d="M33,1c0,0-0.03,0-0.083,0C32.432,1,30,1,30,1v2h-1v1h-1v2h-1v1h-1
	v1h-1v1h-1v4h-1v1h-2v1h1v1h1v1h-2v2h1v1h-3v3h-3v5h-2v2h1v1h1v2h-1v1h-1v1h-1v1h1v1h1v1h-1v1h-2v3h-1v1H8v2h1v1h1v1h1v1H9v2h1v4H9
	v1H7v2H6v2H5v4H4v2H2v-1H1v2h1v1h1v1h1v2H3v1H2v2h1v2h1v1h1v1h1v1v1h4v2H9v1h1v1h1v1h6v-1h2v2h-1v2h3v-1h1h2v-1h7v1h2l-1,10l-1,13h9
	l-1-23h1v-1h7v-1h9v-1h1v-1h2v-1h1v-1h4v-1h1v-1h1v-3h1v-2h-1v-1h1v-1h-1v-1h-1v-2h2v-1h-1v-2h-3v-2h1.375l0-2H62v-1h-1v-1h1v-1h1
	v-5h-1v-1h-1v-4h-1v-2h-1v-2h-1v-2h1v-1h-2v-1h-1v-8h-1v-1h-1v-1h-1v-1h-1v-2h-1v-4h-1v-3h-1v-1h-1v-1h-1v-1h-1v-2v-2h-1V8h-1V7h-1
	V6h-1V5h-1V4h-1V3h-1V2h-1V1h-1V0h-4V1z"/>
<path fill-rule="evenodd" clip-rule="evenodd" fill="#27235D" d="M43,109V93l18-11l18,11v16H64V95h-7v14H43z"/>
<path fill-rule="evenodd" clip-rule="evenodd" fill="#FFFFFF" d="M48,95v7h5v-7H48z"/>
<path fill-rule="evenodd" clip-rule="evenodd" fill="#FFFFFF" d="M69,95v7h5v-7H69z"/>
<path fill-rule="evenodd" clip-rule="evenodd" fill="#008454" d="M66.042,63.667"/>
</svg>
